# xmcd
#
# Track frame offsets:
#	182
#	9957
#	35722
#	51685
#	67172
#	87045
#	107910
#	124307
#	133627
#	154977
#
# Disc length: 2318 seconds
#
# Revision: 131066
# Processed by: cddbd v1.5.2PL0 Copyright (c) Steve Scherf et al.
# Submitted via: EZCDAudioConverter 8.0.2.1
#
DISCID=90090c0a
DTITLE=苏芮 - 「搭错车」电影原声大碟
DYEAR=1983
DGENRE=World Pop
TTITLE0=陈志远 - 序曲
TTITLE1=苏芮 - 一样的月光Ⅰ
TTITLE2=苏芮 - 是否
TTITLE3=苏芮 - 把握
TTITLE4=梁弘志 - 请跟我来[配乐]
TTITLE5=苏芮 - 酒干倘卖无
TTITLE6=苏芮/虞戡平 - 请跟我来
TTITLE7=李寿全 - 一样的月光[配乐]
TTITLE8=苏芮 - 变
TTITLE9=苏芮 - 一样的月光Ⅱ
EXTD=
EXTT0=
EXTT1=
EXTT2=
EXTT3=
EXTT4=
EXTT5=
EXTT6=
EXTT7=
EXTT8=
EXTT9=
PLAYORDER=
